<svg xmlns="http://www.w3.org/2000/svg">
<g transform="translate(0,360) scale(0.1,-0.1)">
<path fill="#4c4fdd" d="M0 1800 l0 -1800 1800 0 1800 0 0 1800 0 1800 -1800 0 -1800 0 0
-1800z m1600 1483 c25 -69 110 -237 142 -285 52 -76 118 -161 228 -293 197
-238 359 -464 482 -675 56 -94 65 -113 144 -272 74 -148 137 -371 149 -523 30
-384 -195 -816 -515 -987 -454 -243 -1001 -59 -1244 419 -40 80 -93 250 -105
338 -15 103 -15 262 -1 348 25 160 71 350 109 452 22 61 60 170 83 243 23 72
47 131 53 129 9 -3 86 -108 172 -236 39 -58 91 -119 138 -163 44 -42 86 -36
102 15 23 70 -20 165 -174 385 -159 228 -222 428 -193 618 25 165 88 281 226
421 143 145 171 154 204 66z"/>
<path fill="#8d5af3" d="M1710 2145 c0 -4 11 -21 24 -38 65 -89 114 -263 101 -361 -17 -134
-92 -209 -236 -236 -29 -6 -54 -12 -56 -14 -2 -1 4 -20 13 -42 9 -21 24 -78
34 -126 27 -137 7 -206 -67 -224 -60 -15 -143 63 -193 183 l-29 68 -22 -50
c-39 -90 -59 -183 -59 -279 0 -167 75 -333 203 -453 114 -105 237 -148 407
-140 175 7 318 79 414 208 50 67 100 178 114 254 13 71 22 205 13 205 -3 0
-15 -11 -25 -25 -54 -71 -195 -145 -279 -145 -40 0 -107 30 -107 48 0 5 22 33
50 63 63 68 112 162 135 258 23 95 17 266 -13 359 -44 139 -172 310 -316 424
-51 41 -106 73 -106 63z"/>
</g>
</svg>
