<svg xmlns="http://www.w3.org/2000/svg">
<path fill="#712cf9" d="M 0 16 L 0 32 L 32 32 L 32 0 L 0 0 Z M 14.222656 2.816406 C 14.445312 3.429688 15.199219 4.925781 15.484375 5.351562 C 15.945312 6.027344 16.535156 6.78125 17.511719 7.957031 C 19.261719 10.070312 20.703125 12.078125 21.796875 13.957031 C 22.292969 14.792969 22.375 14.960938 23.074219 16.375 C 23.734375 17.6875 24.292969 19.671875 24.398438 21.023438 C 24.667969 24.4375 22.667969 28.277344 19.820312 29.796875 C 15.785156 31.957031 10.925781 30.320312 8.765625 26.070312 C 8.410156 25.359375 7.9375 23.847656 7.832031 23.066406 C 7.699219 22.152344 7.699219 20.738281 7.820312 19.972656 C 8.042969 18.550781 8.453125 16.863281 8.792969 15.957031 C 8.988281 15.414062 9.324219 14.445312 9.527344 13.796875 C 9.734375 13.15625 9.945312 12.632812 10 12.648438 C 10.078125 12.675781 10.765625 13.609375 11.527344 14.746094 C 11.875 15.261719 12.335938 15.804688 12.753906 16.195312 C 13.148438 16.570312 13.519531 16.515625 13.664062 16.0625 C 13.867188 15.441406 13.484375 14.59375 12.117188 12.640625 C 10.703125 10.613281 10.140625 8.835938 10.398438 7.148438 C 10.621094 5.679688 11.183594 4.648438 12.410156 3.40625 C 13.679688 2.117188 13.929688 2.035156 14.222656 2.816406 Z M 14.222656 2.816406" />
<path fill="#8d5af3" d="M 15.199219 12.933594 C 15.199219 12.96875 15.296875 13.121094 15.414062 13.269531 C 15.992188 14.0625 16.425781 15.609375 16.3125 16.480469 C 16.160156 17.671875 15.492188 18.335938 14.214844 18.578125 C 13.957031 18.632812 13.734375 18.683594 13.714844 18.703125 C 13.699219 18.710938 13.75 18.878906 13.832031 19.074219 C 13.910156 19.261719 14.042969 19.769531 14.132812 20.195312 C 14.375 21.414062 14.195312 22.027344 13.539062 22.1875 C 13.003906 22.320312 12.265625 21.625 11.820312 20.558594 L 11.5625 19.957031 L 11.367188 20.398438 C 11.023438 21.199219 10.84375 22.027344 10.84375 22.878906 C 10.84375 24.363281 11.511719 25.839844 12.648438 26.90625 C 13.664062 27.839844 14.753906 28.222656 16.265625 28.152344 C 17.820312 28.089844 19.09375 27.449219 19.945312 26.300781 C 20.390625 25.707031 20.835938 24.71875 20.960938 24.042969 C 21.074219 23.414062 21.15625 22.222656 21.074219 22.222656 C 21.050781 22.222656 20.941406 22.320312 20.851562 22.445312 C 20.375 23.074219 19.121094 23.734375 18.375 23.734375 C 18.019531 23.734375 17.421875 23.464844 17.421875 23.308594 C 17.421875 23.261719 17.617188 23.011719 17.867188 22.746094 C 18.425781 22.140625 18.863281 21.308594 19.066406 20.453125 C 19.269531 19.609375 19.21875 18.089844 18.949219 17.261719 C 18.558594 16.027344 17.421875 14.507812 16.140625 13.492188 C 15.6875 13.128906 15.199219 12.84375 15.199219 12.933594 Z M 15.199219 12.933594" />
</svg>
